<?xml version="1.0" encoding="utf-8"?>
<svg fill="#000000" height="800px" width="800px" version="1.1" id="Layer_1" xmlns="http://www.w3.org/2000/svg" viewBox="0 0 503.467 503.467">
  <g>
    <g>
      <g>
        <path d="M256,145.067c-69.385,0-128,27.358-128,59.733s58.615,59.733,128,59.733s128-27.358,128-59.733 S325.385,145.067,256,145.067z M256,247.467c-43.785,0-76.8-18.338-76.8-42.667c0-24.329,33.015-42.667,76.8-42.667 s76.8,18.338,76.8,42.667C332.8,229.129,299.785,247.467,256,247.467z" style="fill: rgb(145, 54, 232);"/>
        <path d="M256,179.2c-34.193,0-59.733,13.517-59.733,25.6s25.54,25.6,59.733,25.6s59.733-13.517,59.733-25.6 S290.193,179.2,256,179.2z" style="fill: rgb(145, 54, 232);"/>
        <path d="M256,76.8c-138.769,0-247.467,56.226-247.467,128v93.867c0,8.858,1.835,17.724,5.282,26.419 C5.436,332.211,0,342.69,0,354.526v33.348c0,21.393,17.399,38.793,38.793,38.793h55.074h17.067h25.6v-34.133 c0-4.71,3.814-8.533,8.533-8.533s8.533,3.823,8.533,8.533v34.133h25.6v-34.133c0-4.71,3.814-8.533,8.533-8.533 s8.533,3.823,8.533,8.533v34.133h25.6v-34.133c0-4.71,3.814-8.533,8.533-8.533s8.533,3.823,8.533,8.533v34.133H256 c2.867,0,5.692-0.06,8.533-0.111v-34.022c0-4.71,3.814-8.533,8.533-8.533c4.719,0,8.533,3.823,8.533,8.533v33.485 c8.687-0.444,17.22-1.118,25.6-1.988v-31.497c0-4.71,3.814-8.533,8.533-8.533s8.533,3.823,8.533,8.533v29.346 c8.755-1.254,17.297-2.739,25.6-4.446V384c0-4.71,3.814-8.533,8.533-8.533s8.533,3.823,8.533,8.533v29.517 c8.858-2.253,17.408-4.762,25.6-7.518v-39.066c0-4.71,3.814-8.533,8.533-8.533c4.719,0,8.533,3.823,8.533,8.533v32.751 c9.079-3.678,17.63-7.671,25.6-11.964v-37.854c0-4.71,3.814-8.533,8.533-8.533s8.533,3.823,8.533,8.533v27.605 c6.238-4.181,11.981-8.567,17.186-13.158l-0.119-40.021c-0.017-4.71,3.789-8.55,8.508-8.559h0.026 c4.702,0,8.516,3.806,8.533,8.508l0.068,21.837c10.948-14.601,16.998-30.566,16.998-47.411V204.8 C503.467,133.026,394.769,76.8,256,76.8z M55.467,401.067c-16.469,0-29.867-13.397-29.867-29.867 c0-16.469,13.397-29.867,29.867-29.867c16.469,0,29.867,13.397,29.867,29.867C85.333,387.669,71.936,401.067,55.467,401.067z M110.933,315.733H93.867H38.793H28.467c-1.903-5.683-2.867-11.401-2.867-17.067v-46.268c0.196,0.265,0.461,0.521,0.666,0.785 c2.236,2.91,4.651,5.769,7.279,8.568c0.435,0.461,0.896,0.913,1.34,1.374c2.807,2.893,5.76,5.751,8.977,8.516 c0.009,0.008,0.026,0.026,0.043,0.034c3.209,2.756,6.665,5.427,10.257,8.038c0.572,0.418,1.135,0.836,1.715,1.254 c3.49,2.466,7.159,4.864,10.974,7.185c0.751,0.461,1.519,0.913,2.278,1.374c3.908,2.313,7.945,4.557,12.169,6.716 c0.597,0.307,1.22,0.597,1.826,0.896c4.258,2.133,8.653,4.19,13.201,6.161c0.333,0.145,0.64,0.29,0.973,0.435 c4.685,1.997,9.566,3.891,14.541,5.709c0.879,0.316,1.741,0.64,2.628,0.956c4.89,1.741,9.907,3.379,15.053,4.932 c0.418,0.128,0.794,0.273,1.212,0.401H110.933z M256,281.6c-81.34,0-145.067-33.732-145.067-76.8S174.66,128,256,128 s145.067,33.732,145.067,76.8S337.34,281.6,256,281.6z" style="fill: rgb(145, 54, 232);"/>
        <path d="M55.467,358.4c-7.057,0-12.8,5.743-12.8,12.8c0,7.057,5.743,12.8,12.8,12.8s12.8-5.743,12.8-12.8 C68.267,364.143,62.524,358.4,55.467,358.4z" style="fill: rgb(145, 54, 232);"/>
      </g>
    </g>
  </g>
</svg>